<svg width="1000" height="1000" viewBox="0 0 1000 1000" fill="none" xmlns="http://www.w3.org/2000/svg">
<path d="M500 100C279.4 100 100 279.4 100 500s179.4 400 400 400 400-179.4 400-400S720.6 100 500 100zm0 720c-176.8 0-320-143.2-320-320s143.2-320 320-320 320 143.2 320 320-143.2 320-320 320z" fill="currentColor"/>
<path d="M500 280c-60 0-120 20-160 60-20 20-20 60 0 80s60 20 80 0c20-20 60-20 80 0s60 20 80 0c20-20 60-20 80 0 20 20 20 60 0 80-40 40-100 60-160 60s-120-20-160-60c-20-20-20-60 0-80s60-20 80 0c20 20 60 20 80 0s60-20 80 0c20 20 60 20 80 0 20-20 20-60 0-80-40-40-100-60-160-60z" fill="currentColor"/>
<path d="M400 460c0 20 20 40 40 40s40-20 40-40-20-40-40-40-40 20-40 40zm120 0c0 20 20 40 40 40s40-20 40-40-20-40-40-40-40 20-40 40z" fill="currentColor"/>
</svg>
